<svg width="36" height="33" viewBox="0 0 36 33" fill="none" xmlns="http://www.w3.org/2000/svg">
<path d="M14.4141 17.1571L18.3641 21.1071C18.5417 21.2965 18.6387 21.5477 18.6345 21.8074C18.6303 22.067 18.5252 22.3149 18.3415 22.4985C18.1578 22.6821 17.9098 22.787 17.6501 22.791C17.3905 22.795 17.1394 22.6979 16.9501 22.5201L11.2931 16.8641C11.1999 16.7714 11.1259 16.6613 11.0755 16.5399C11.025 16.4186 10.999 16.2885 10.999 16.1571C10.999 16.0257 11.025 15.8956 11.0755 15.7742C11.1259 15.6529 11.1999 15.5427 11.2931 15.4501L16.9501 9.79308C17.0423 9.69757 17.1526 9.62139 17.2747 9.56898C17.3967 9.51657 17.5279 9.48898 17.6607 9.48783C17.7934 9.48668 17.9251 9.51198 18.048 9.56226C18.1709 9.61254 18.2826 9.68679 18.3765 9.78069C18.4703 9.87458 18.5446 9.98623 18.5949 10.1091C18.6452 10.232 18.6705 10.3637 18.6693 10.4965C18.6682 10.6293 18.6406 10.7605 18.5882 10.8825C18.5358 11.0045 18.4596 11.1148 18.3641 11.2071L14.4141 15.1571H24.0001C24.2653 15.1571 24.5196 15.2624 24.7072 15.45C24.8947 15.6375 25.0001 15.8919 25.0001 16.1571C25.0001 16.4223 24.8947 16.6767 24.7072 16.8642C24.5196 17.0517 24.2653 17.1571 24.0001 17.1571H14.4141Z" fill="#012767"/>
</svg>
