<svg width="36" height="32" viewBox="0 0 36 32" fill="none" xmlns="http://www.w3.org/2000/svg">
<path d="M21.586 14.6569L17.636 10.7069C17.4538 10.5183 17.353 10.2657 17.3553 10.0035C17.3576 9.74132 17.4628 9.49051 17.6482 9.3051C17.8336 9.11969 18.0844 9.01452 18.3466 9.01224C18.6088 9.00997 18.8614 9.11076 19.05 9.29292L24.707 14.9499C24.8002 15.0426 24.8741 15.1527 24.9246 15.2741C24.9751 15.3954 25.001 15.5255 25.001 15.6569C25.001 15.7883 24.9751 15.9184 24.9246 16.0398C24.8741 16.1611 24.8002 16.2713 24.707 16.3639L19.05 22.0209C18.9578 22.1164 18.8474 22.1926 18.7254 22.245C18.6034 22.2974 18.4722 22.325 18.3394 22.3262C18.2066 22.3273 18.0749 22.302 17.952 22.2517C17.8291 22.2015 17.7175 22.1272 17.6236 22.0333C17.5297 21.9394 17.4555 21.8278 17.4052 21.7049C17.3549 21.582 17.3296 21.4503 17.3307 21.3175C17.3319 21.1847 17.3595 21.0535 17.4119 20.9315C17.4643 20.8095 17.5405 20.6992 17.636 20.6069L21.586 16.6569H12C11.7348 16.6569 11.4804 16.5516 11.2929 16.364C11.1054 16.1765 11 15.9221 11 15.6569C11 15.3917 11.1054 15.1373 11.2929 14.9498C11.4804 14.7623 11.7348 14.6569 12 14.6569H21.586Z" fill="#012767"/>
</svg>
