<svg width="26" height="26" viewBox="0 0 26 26" fill="none" xmlns="http://www.w3.org/2000/svg">
<path d="M20.0268 19.6667C18.5256 19.6667 17.3087 20.8606 17.3087 22.3333C17.3087 23.8061 18.5256 25 20.0268 25C21.528 25 22.7449 23.8061 22.7449 22.3333C22.7449 20.8606 21.528 19.6667 20.0268 19.6667ZM20.0268 19.6667H9.55384C8.92723 19.6667 8.61335 19.6667 8.35537 19.5573C8.12779 19.4608 7.93036 19.3055 7.78651 19.1074C7.62528 18.8853 7.56043 18.5884 7.43207 18.0007L4.08708 2.6862C3.95573 2.08485 3.88918 1.7845 3.72608 1.5599C3.58223 1.3618 3.38483 1.20588 3.15726 1.1094C2.89922 1 2.58709 1 1.96022 1H1M5.07717 5H22.5726C23.5536 5 24.0435 5 24.3728 5.20048C24.6612 5.37608 24.8723 5.65149 24.9643 5.97201C25.0694 6.33791 24.9344 6.79995 24.6625 7.72461L22.7808 14.1246C22.6182 14.6775 22.5369 14.9534 22.372 15.1585C22.2264 15.3396 22.0344 15.4813 21.8168 15.5684C21.5709 15.6667 21.2787 15.6667 20.6956 15.6667H7.42898M7.79529 25C6.29412 25 5.07717 23.8061 5.07717 22.3333C5.07717 20.8606 6.29412 19.6667 7.79529 19.6667C9.29646 19.6667 10.5134 20.8606 10.5134 22.3333C10.5134 23.8061 9.29646 25 7.79529 25Z" stroke="#76CA66" stroke-width="2" stroke-linecap="round" stroke-linejoin="round"/>
</svg>
