<svg width="16" height="16" viewBox="0 0 16 16" fill="none" xmlns="http://www.w3.org/2000/svg">
<path fill-rule="evenodd" clip-rule="evenodd" d="M11.3216 5.11716C11.533 5.29477 11.5605 5.61016 11.3829 5.82161L7.18286 10.8216C7.08977 10.9324 6.95324 10.9975 6.80854 10.9999C6.66384 11.0024 6.52517 10.9421 6.42836 10.8345L4.62836 8.83449C4.44363 8.62924 4.46027 8.31309 4.66552 8.12836C4.87078 7.94363 5.18692 7.96027 5.37165 8.16553L6.78699 9.73813L10.6172 5.17842C10.7948 4.96697 11.1102 4.93955 11.3216 5.11716Z" fill="#76CA66"/>
<path fill-rule="evenodd" clip-rule="evenodd" d="M3.5 2.5C2.94772 2.5 2.5 2.94772 2.5 3.5V12.5C2.5 13.0523 2.94772 13.5 3.5 13.5H12.5C13.0523 13.5 13.5 13.0523 13.5 12.5V3.5C13.5 2.94772 13.0523 2.5 12.5 2.5H3.5ZM1.5 3.5C1.5 2.39543 2.39543 1.5 3.5 1.5H12.5C13.6046 1.5 14.5 2.39543 14.5 3.5V12.5C14.5 13.6046 13.6046 14.5 12.5 14.5H3.5C2.39543 14.5 1.5 13.6046 1.5 12.5V3.5Z" fill="#76CA66"/>
</svg>
