<svg width="24" height="24" viewBox="0 0 24 24" fill="none" xmlns="http://www.w3.org/2000/svg">
<g clip-path="url(#clip0_2201_5582)">
<g clip-path="url(#clip1_2201_5582)">
<path fill-rule="evenodd" clip-rule="evenodd" d="M5.07593 18.8943C1.2696 15.088 1.2696 8.91204 5.07593 5.10571C8.88226 1.29938 15.0582 1.29938 18.8645 5.10571C22.6708 8.91204 22.6708 15.088 18.8645 18.8943C15.0582 22.7006 8.88226 22.7006 5.07593 18.8943ZM6.13659 6.16637C2.91605 9.38691 2.91605 14.6131 6.13659 17.8336C9.35714 21.0542 14.5833 21.0542 17.8039 17.8336C21.0244 14.6131 21.0244 9.38691 17.8039 6.16637C14.5833 2.94583 9.35714 2.94583 6.13659 6.16637Z" fill="#76CA66"/>
<path fill-rule="evenodd" clip-rule="evenodd" d="M6.97863 12C6.97863 11.5858 7.31442 11.25 7.72863 11.25L16.2139 11.25C16.6281 11.25 16.9639 11.5858 16.9639 12C16.9639 12.4142 16.6281 12.75 16.2139 12.75L7.72863 12.75C7.31442 12.75 6.97863 12.4142 6.97863 12Z" fill="#76CA66"/>
<path fill-rule="evenodd" clip-rule="evenodd" d="M11.9713 7.00736C12.3855 7.00736 12.7213 7.34315 12.7213 7.75736V16.2426C12.7213 16.6569 12.3855 16.9926 11.9713 16.9926C11.5571 16.9926 11.2213 16.6569 11.2213 16.2426V7.75736C11.2213 7.34315 11.5571 7.00736 11.9713 7.00736Z" fill="#76CA66"/>
</g>
</g>
<defs>
<clipPath id="clip0_2201_5582">
<rect width="24" height="24" fill="white"/>
</clipPath>
<clipPath id="clip1_2201_5582">
<rect width="24" height="24" fill="white" transform="translate(-5 12) rotate(-45)"/>
</clipPath>
</defs>
</svg>
