<svg width="32" height="32" viewBox="0 0 32 32" fill="none" xmlns="http://www.w3.org/2000/svg">
<g filter="url(#filter0_d_2199_4901)">
<path fill-rule="evenodd" clip-rule="evenodd" d="M6.25052 8.28028C6.27976 5.42838 8.54537 3 11.4574 3C13.2447 3 14.5595 3.88475 15.3985 4.71777C15.6321 4.94972 15.8326 5.18108 16.0005 5.39441C16.1684 5.18108 16.3688 4.94972 16.6024 4.71777C17.4415 3.88475 18.7562 3 20.5436 3C23.4556 3 25.7212 5.42838 25.7504 8.28028L25.7504 8.28049C25.8059 13.8427 21.3366 17.6908 16.8442 20.7403C16.5954 20.9095 16.3014 21.0001 16.0005 21.0001C15.6995 21.0001 15.4056 20.9095 15.1567 20.7403C10.6639 17.6908 6.19456 13.8427 6.25052 8.28042L6.25052 8.28028ZM16.6704 7.08725C16.543 7.34027 16.2839 7.5 16.0005 7.5C15.7171 7.5 15.458 7.34029 15.3306 7.08729C15.3304 7.08698 15.3301 7.08638 15.3297 7.0855C15.3288 7.08372 15.3273 7.08081 15.3251 7.0768C15.324 7.07467 15.3227 7.07223 15.3213 7.0695C15.3128 7.0537 15.2988 7.02796 15.2792 6.9937C15.2399 6.92508 15.1786 6.82288 15.0952 6.69831C14.9277 6.44793 14.676 6.11413 14.3417 5.78223C13.6699 5.11525 12.7131 4.5 11.4574 4.5C9.42314 4.5 7.7719 6.20966 7.75044 8.29551M16.6704 7.08725C16.6705 7.08694 16.6708 7.08635 16.6713 7.0855C16.6727 7.08278 16.6755 7.07739 16.6797 7.0695C16.6881 7.0537 16.7022 7.02796 16.7218 6.9937C16.7611 6.92508 16.8224 6.82288 16.9058 6.69831C17.0733 6.44793 17.325 6.11413 17.6593 5.78223C18.3311 5.11525 19.2879 4.5 20.5436 4.5C22.5778 4.5 24.229 6.20963 24.2505 8.29545C24.2972 12.9826 20.5329 16.4235 16.0011 19.4996L16.0005 19.5001L15.9998 19.4996C11.4676 16.4235 7.70336 12.9827 7.75044 8.29566" fill="#F8FAFC"/>
</g>
<defs>
<filter id="filter0_d_2199_4901" x="0" y="0" width="32" height="32" filterUnits="userSpaceOnUse" color-interpolation-filters="sRGB">
<feFlood flood-opacity="0" result="BackgroundImageFix"/>
<feColorMatrix in="SourceAlpha" type="matrix" values="0 0 0 0 0 0 0 0 0 0 0 0 0 0 0 0 0 0 127 0" result="hardAlpha"/>
<feOffset dy="4"/>
<feGaussianBlur stdDeviation="2"/>
<feComposite in2="hardAlpha" operator="out"/>
<feColorMatrix type="matrix" values="0 0 0 0 0 0 0 0 0 0 0 0 0 0 0 0 0 0 0.25 0"/>
<feBlend mode="normal" in2="BackgroundImageFix" result="effect1_dropShadow_2199_4901"/>
<feBlend mode="normal" in="SourceGraphic" in2="effect1_dropShadow_2199_4901" result="shape"/>
</filter>
</defs>
</svg>
