<svg width="13" height="12" viewBox="0 0 13 12" fill="none" xmlns="http://www.w3.org/2000/svg">
<path fill-rule="evenodd" clip-rule="evenodd" d="M0.000347715 3.52019C0.0198405 1.61892 1.53025 0 3.47157 0C4.66316 0 5.53967 0.589831 6.09901 1.14518C6.25475 1.29981 6.38841 1.45405 6.50032 1.59627C6.61223 1.45405 6.74589 1.29981 6.90163 1.14518C7.46097 0.589831 8.33748 0 9.52907 0C11.4704 0 12.9808 1.61892 13.0003 3.52019L13.0003 3.52033C13.0373 7.2285 10.0577 9.79388 7.06282 11.8268C6.89694 11.9397 6.70095 12 6.50032 12C6.29969 12 6.1037 11.9397 5.93782 11.8268C2.94261 9.79388 -0.0369625 7.22848 0.000346761 3.52028L0.000347715 3.52019ZM6.94692 2.72484C6.862 2.89352 6.68925 3 6.50032 3C6.3114 3 6.13866 2.89352 6.05374 2.72486C6.05363 2.72465 6.05343 2.72425 6.05312 2.72367C6.05251 2.72248 6.0515 2.72054 6.05009 2.71786C6.04934 2.71645 6.04848 2.71482 6.04751 2.713C6.04189 2.70247 6.03254 2.68531 6.01946 2.66247C5.99327 2.61672 5.95237 2.54859 5.89681 2.46554C5.78513 2.29862 5.6173 2.07609 5.39444 1.85482C4.9466 1.41017 4.30873 1 3.47157 1C2.11542 1 1.0146 2.13978 1.0003 3.53034M6.94692 2.72484C6.94703 2.72462 6.94723 2.72423 6.94752 2.72367C6.94846 2.72185 6.95033 2.71826 6.95314 2.713C6.95876 2.70247 6.96811 2.68531 6.98118 2.66247C7.00737 2.61672 7.04827 2.54859 7.10384 2.46554C7.21552 2.29862 7.38334 2.07609 7.6062 1.85482C8.05404 1.41017 8.69191 1 9.52907 1C10.8852 1 11.986 2.13975 12.0003 3.5303C12.0315 6.65507 9.52196 8.94899 6.50076 10.9997L6.50032 11L6.49986 10.9997C3.47838 8.949 0.968908 6.65512 1.0003 3.53044" fill="#116ACC"/>
</svg>
