<svg width="111" height="57" viewBox="0 0 111 57" fill="none" xmlns="http://www.w3.org/2000/svg">
<circle cx="54.6426" cy="28.125" r="27.1875" stroke="#F8FAFC" stroke-width="1.875"/>
<rect width="109.5" height="18.375" transform="translate(0 18.8838)" fill="#010101"/>
<path d="M5.47068 23.2941V34.8838H4.4363V19.4151H6.10541L11.5947 33.0266H11.6534L17.1309 19.4151H18.7648V34.8838H17.6716V23.1648C17.6716 22.3811 17.7147 21.5348 17.8009 20.6258H17.7187L11.9238 34.8838H11.242L5.47068 20.6023H5.3884C5.44325 21.4251 5.47068 22.3224 5.47068 23.2941ZM30.6101 34.8838H29.846L29.5757 33.0619H29.4934C28.9135 33.8063 28.3219 34.3313 27.7185 34.6369C27.1151 34.9426 26.3903 35.0954 25.544 35.0954C24.4234 35.0954 23.5457 34.8054 22.911 34.2255C22.2841 33.6457 21.9707 32.8464 21.9707 31.8277C21.9707 30.6993 22.4408 29.8255 23.3812 29.2065C24.3215 28.5874 25.6733 28.2622 27.4364 28.2309L29.6227 28.1721V27.4081C29.6227 26.2953 29.3955 25.4647 28.941 24.9161C28.4865 24.3676 27.7499 24.0933 26.7311 24.0933C25.7124 24.0933 24.635 24.3911 23.4987 24.9867L23.0991 24.0698C24.3685 23.4821 25.6262 23.1883 26.8722 23.1883C28.126 23.1883 29.0624 23.5174 29.6815 24.1756C30.3005 24.8339 30.6101 25.8526 30.6101 27.2317V34.8838ZM23.0873 31.8747C23.0873 32.5878 23.3067 33.1442 23.7456 33.5438C24.1922 33.9434 24.8152 34.1433 25.6145 34.1433C26.8291 34.1433 27.793 33.7946 28.506 33.0971C29.2191 32.3919 29.5757 31.4163 29.5757 30.1703V29.0301L27.5657 29.1242C25.9514 29.1947 24.7995 29.4455 24.1099 29.8765C23.4282 30.2996 23.0873 30.9657 23.0873 31.8747ZM38.8555 23.1648C39.3491 23.1648 39.8702 23.2118 40.4188 23.3058L40.219 24.3167C39.7409 24.1991 39.2433 24.1404 38.7262 24.1404C37.7388 24.1404 36.9317 24.5596 36.3048 25.3981C35.6857 26.2287 35.3762 27.2748 35.3762 28.5365V34.8838H34.33V23.3881H35.2116L35.3174 25.4568H35.3997C35.862 24.6184 36.3635 24.0267 36.9042 23.6819C37.4528 23.3372 38.1032 23.1648 38.8555 23.1648ZM43.7998 34.8838H42.7536V18.4278H43.7998V26.6793L43.7292 29.8412H43.7763L49.6534 23.3881H50.9229L46.3857 28.2896L51.3108 34.8838H50.0531L45.6805 29.0772L43.7998 30.7933V34.8838ZM60.417 28.3484C60.417 27.0241 60.1271 25.9858 59.5472 25.2335C58.9752 24.4734 58.1524 24.0933 57.0788 24.0933C56.0052 24.0933 55.1354 24.4616 54.4693 25.1982C53.8033 25.927 53.4154 26.9771 53.3057 28.3484H60.417ZM57.4549 35.0954C55.7858 35.0954 54.4811 34.5821 53.5407 33.5556C52.6082 32.5133 52.142 31.0715 52.142 29.23C52.142 27.3885 52.5926 25.9192 53.4937 24.8221C54.4027 23.7172 55.6213 23.1648 57.1493 23.1648C58.505 23.1648 59.5707 23.6388 60.3465 24.587C61.1301 25.5195 61.5219 26.8008 61.5219 28.4307V29.277H53.2469C53.2547 30.8521 53.6191 32.0588 54.34 32.8973C55.0688 33.7279 56.1071 34.1433 57.4549 34.1433C58.0897 34.1433 58.6617 34.1002 59.1711 34.014C59.6804 33.9199 60.3151 33.7201 61.0753 33.4145V34.3666C60.4484 34.6409 59.8567 34.8289 59.3004 34.9308C58.744 35.0405 58.1288 35.0954 57.4549 35.0954ZM65.8143 31.5691C65.8143 32.4546 65.9672 33.1089 66.2728 33.532C66.5862 33.9552 67.076 34.1668 67.7421 34.1668C68.4081 34.1668 68.988 34.108 69.4817 33.9905V34.8368C68.988 35.0092 68.4003 35.0954 67.7185 35.0954C66.7077 35.0954 65.9593 34.8211 65.4735 34.2726C64.9876 33.724 64.7447 32.8738 64.7447 31.7219V24.2932H63.0403V23.6819L64.7447 23.2L65.2736 20.6023H65.8143V23.3881H69.1878V24.2932H65.8143V31.5691ZM83.4128 19.4151V34.8838H82.3314V27.2788H73.2924V34.8838H72.211V19.4151H73.2924V26.2796H82.3314V19.4151H83.4128ZM87.3987 23.3881H88.4331V30.8286C88.4331 31.9805 88.6721 32.8229 89.1501 33.3557C89.636 33.8808 90.3961 34.1433 91.4305 34.1433C92.8018 34.1433 93.8088 33.7946 94.4513 33.0971C95.0939 32.3997 95.4152 31.2791 95.4152 29.7354V23.3881H96.4496V34.8838H95.568L95.3799 33.297H95.3094C94.5728 34.4959 93.2446 35.0954 91.3247 35.0954C88.7074 35.0954 87.3987 33.6966 87.3987 30.8991V23.3881ZM108.903 29.1007C108.903 25.7781 107.65 24.1169 105.142 24.1169C103.786 24.1169 102.815 24.5047 102.227 25.2805C101.647 26.0641 101.357 27.3454 101.357 29.1242V29.3005C101.357 31.0323 101.663 32.2783 102.274 33.0384C102.885 33.7906 103.822 34.1668 105.083 34.1668C106.345 34.1668 107.297 33.7319 107.94 32.862C108.582 31.9922 108.903 30.7384 108.903 29.1007ZM105.166 23.1648C106.764 23.1648 107.971 23.6702 108.786 24.6811C109.609 25.6841 110.02 27.1495 110.02 29.0772C110.02 31.0049 109.589 32.4937 108.727 33.5438C107.865 34.5782 106.662 35.0954 105.119 35.0954C104.296 35.0954 103.555 34.9269 102.897 34.5899C102.247 34.253 101.733 33.771 101.357 33.1442H101.263L100.969 34.8838H100.311V18.4278H101.357V22.5653C101.357 23.2392 101.341 23.8073 101.31 24.2697L101.287 25.1747H101.357C101.796 24.4852 102.321 23.9797 102.932 23.6584C103.551 23.3293 104.296 23.1648 105.166 23.1648Z" fill="#F8FAFC"/>
</svg>
