<svg width="17" height="16" viewBox="0 0 17 16" fill="none" xmlns="http://www.w3.org/2000/svg">
<path d="M8.49988 6.54541V9.6436H12.8053C12.6163 10.64 12.0489 11.4836 11.198 12.0509L13.7944 14.0655C15.3071 12.6691 16.1798 10.6182 16.1798 8.18185C16.1798 7.61459 16.1289 7.06908 16.0344 6.5455L8.49988 6.54541Z" fill="#4285F4"/>
<path d="M4.01643 9.52246L3.43085 9.97071L1.35809 11.5852C2.67445 14.1961 5.37244 15.9998 8.49968 15.9998C10.6596 15.9998 12.4705 15.287 13.7942 14.0653L11.1978 12.0507C10.4851 12.5307 9.576 12.8216 8.49968 12.8216C6.41969 12.8216 4.65247 11.418 4.0197 9.52708L4.01643 9.52246Z" fill="#34A853"/>
<path d="M1.35812 4.41455C0.812695 5.49087 0.5 6.70543 0.5 7.99996C0.5 9.29448 0.812695 10.509 1.35812 11.5854C1.35812 11.5926 4.01998 9.51991 4.01998 9.51991C3.85998 9.03991 3.76541 8.53085 3.76541 7.99987C3.76541 7.46889 3.85998 6.95984 4.01998 6.47984L1.35812 4.41455Z" fill="#FBBC05"/>
<path d="M8.49985 3.18545C9.67805 3.18545 10.7253 3.59271 11.5617 4.37818L13.8525 2.0873C12.4635 0.792777 10.6599 0 8.49985 0C5.3726 0 2.67445 1.79636 1.35809 4.41455L4.01988 6.48001C4.65256 4.58908 6.41986 3.18545 8.49985 3.18545Z" fill="#EA4335"/>
</svg>
